<svg width="44" height="44" viewBox="0 0 44 44" fill="none" xmlns="http://www.w3.org/2000/svg">
<rect width="44" height="44" rx="8" fill="black"/>
<path d="M28.5 13.5C27.8 13.5 27.2 13.9 26.9 14.5C26.7 14.9 26.6 15.4 26.6 15.9V28C26.6 29.6 25.3 30.9 23.7 30.9C22.1 30.9 20.8 29.6 20.8 28C20.8 26.4 22.1 25.1 23.7 25.1C24 25.1 24.3 25.2 24.5 25.2V22C24.3 22 24 22 23.7 22C20.4 22 17.7 24.7 17.7 28C17.7 31.3 20.4 34 23.7 34C27 34 29.7 31.3 29.7 28V19.5C30.8 20.3 32.1 20.7 33.5 20.7V17.5C31.4 17.5 29.7 15.9 29.5 13.8C29.5 13.7 29.5 13.6 29.5 13.5H28.5Z" fill="#00F2EA"/>
<path d="M28.5 13.5C27.8 13.5 27.2 13.9 26.9 14.5C26.7 14.9 26.6 15.4 26.6 15.9V28C26.6 29.6 25.3 30.9 23.7 30.9C22.1 30.9 20.8 29.6 20.8 28C20.8 26.4 22.1 25.1 23.7 25.1C24 25.1 24.3 25.2 24.5 25.2V22C24.3 22 24 22 23.7 22C20.4 22 17.7 24.7 17.7 28C17.7 31.3 20.4 34 23.7 34C27 34 29.7 31.3 29.7 28V19.5C30.8 20.3 32.1 20.7 33.5 20.7V17.5C31.4 17.5 29.7 15.9 29.5 13.8C29.5 13.7 29.5 13.6 29.5 13.5H28.5Z" fill="#FF004F" fill-opacity="0.5"/>
</svg>
